<svg xmlns="http://www.w3.org/2000/svg" width="22.203" height="15.611" viewBox="0 0 22.203 15.611">
  <g id="Group_36" data-name="Group 36" transform="translate(0 0)">
    <path id="Path_46" data-name="Path 46" d="M36.671,66.443a2.79,2.79,0,0,0-1.963-1.976C32.977,64,26.034,64,26.034,64s-6.943,0-8.674.467A2.79,2.79,0,0,0,15.4,66.443a31.411,31.411,0,0,0,0,10.757,2.748,2.748,0,0,0,1.963,1.944c1.731.467,8.674.467,8.674.467s6.943,0,8.674-.467A2.748,2.748,0,0,0,36.671,77.2a31.411,31.411,0,0,0,0-10.757Zm-12.908,8.68v-6.6l5.8,3.3Z" transform="translate(-14.933 -64)" fill="#b89a49"/>
  </g>
</svg>
