<svg xmlns="http://www.w3.org/2000/svg" xmlns:xlink="http://www.w3.org/1999/xlink" width="132.593" height="39.417" viewBox="0 0 132.593 39.417">
  <defs>
    <linearGradient id="linear-gradient" x1="-0.024" y1="0.638" x2="0.484" y2="0.524" gradientUnits="objectBoundingBox">
      <stop offset="0" stop-color="#fff"/>
      <stop offset="1" stop-color="#a4a4a5"/>
    </linearGradient>
    <linearGradient id="linear-gradient-2" x1="0.467" y1="0.488" x2="0.965" y2="0.383" xlink:href="#linear-gradient"/>
    <linearGradient id="linear-gradient-3" x1="0.402" y1="0.519" x2="0.932" y2="0.42" xlink:href="#linear-gradient"/>
    <linearGradient id="linear-gradient-4" x1="0.039" y1="0.707" x2="0.497" y2="0.532" xlink:href="#linear-gradient"/>
  </defs>
  <g id="Group_66" data-name="Group 66" transform="translate(-62 418.473)">
    <g id="Group_63" data-name="Group 63" transform="translate(107.525 -405.762)">
      <path id="Path_74" data-name="Path 74" d="M322.588-338.437a4.55,4.55,0,0,1-.311,1.721,3.6,3.6,0,0,1-.884,1.3,3.963,3.963,0,0,1-1.39.826,5.411,5.411,0,0,1-1.827.292,7.57,7.57,0,0,1-2.877-.515,8.224,8.224,0,0,1-2.08-1.176l1.613-1.614a4.613,4.613,0,0,0,1.439.894,3.886,3.886,0,0,0,.914.253,5.363,5.363,0,0,0,.7.058,3.177,3.177,0,0,0,.923-.126,2.6,2.6,0,0,0,.729-.34,1.518,1.518,0,0,0,.661-1.283,1.275,1.275,0,0,0-.35-.875,2.04,2.04,0,0,0-.7-.505,3.732,3.732,0,0,0-.739-.311q-.389-.117-.7-.214a.73.73,0,0,0-.175-.048.3.3,0,0,1-.136-.049.289.289,0,0,1-.117-.039q-.408-.117-1.176-.408a7.647,7.647,0,0,1-1.526-.8,3.452,3.452,0,0,1-1.769-2.916,4.25,4.25,0,0,1,.4-1.934,3.7,3.7,0,0,1,1.04-1.283,4.06,4.06,0,0,1,1.429-.71,5.891,5.891,0,0,1,1.546-.214,7.247,7.247,0,0,1,2.352.33,8.769,8.769,0,0,1,1.516.661,4.344,4.344,0,0,1,.5.34q.2.165.36.3l-1.652,1.672a4.177,4.177,0,0,0-1.069-.8,3.935,3.935,0,0,0-1.711-.389,3.2,3.2,0,0,0-.778.1,2.994,2.994,0,0,0-.68.253,1.572,1.572,0,0,0-.855,1.38,1.253,1.253,0,0,0,.35.894,2.346,2.346,0,0,0,.7.525,4.047,4.047,0,0,0,.778.311q.408.117.758.214l.233.058q.1.039.369.117a5.887,5.887,0,0,1,.642.233q.369.156.807.369a7,7,0,0,1,.865.505A3.534,3.534,0,0,1,322.588-338.437Z" transform="translate(-312.81 348.448)" fill="#fff"/>
      <path id="Path_75" data-name="Path 75" d="M382.99-326.922a3.116,3.116,0,0,1,1.429.311,2.731,2.731,0,0,1,1,.855,3.909,3.909,0,0,1,.583,1.263,5.951,5.951,0,0,1,.194,1.555v6.007h-2.333v-6.007a1.593,1.593,0,0,0-.486-1.166,1.551,1.551,0,0,0-1.166-.486,1.551,1.551,0,0,0-1.166.486,1.59,1.59,0,0,0-.486,1.166v6.007h-2.333v-6.007a1.593,1.593,0,0,0-.486-1.166,1.426,1.426,0,0,0-.535-.369,1.738,1.738,0,0,0-.632-.117,1.573,1.573,0,0,0-1.186.486,1.591,1.591,0,0,0-.486,1.166v6.007H372.57v-9.72H374.9v.855a6.09,6.09,0,0,1,1.186-.807,2.73,2.73,0,0,1,1.264-.321,2.689,2.689,0,0,1,1.438.35,3.584,3.584,0,0,1,1.011.972,4.2,4.2,0,0,1,1.361-.943A4.37,4.37,0,0,1,382.99-326.922Z" transform="translate(-361.723 330.829)" fill="#fff"/>
      <path id="Path_76" data-name="Path 76" d="M463.263-326.669v9.739H460.93v-4.86a2.7,2.7,0,0,0-.816-1.983,2.7,2.7,0,0,0-1.983-.816,2.787,2.787,0,0,0-1.079.214,2.764,2.764,0,0,0-.9.6,2.7,2.7,0,0,0-.816,1.983,2.676,2.676,0,0,0,.816,1.963,2.51,2.51,0,0,0,.9.612,2.9,2.9,0,0,0,1.079.2,2.707,2.707,0,0,0,1.05-.194l.836,2.08a4.6,4.6,0,0,1-2.08.447,4.838,4.838,0,0,1-1.973-.4,4.774,4.774,0,0,1-1.565-1.1,5.065,5.065,0,0,1-1.03-1.633A5.336,5.336,0,0,1,453-321.79a5.391,5.391,0,0,1,.369-2,5.069,5.069,0,0,1,1.03-1.633,4.781,4.781,0,0,1,1.565-1.1,4.841,4.841,0,0,1,1.973-.4,4.582,4.582,0,0,1,1.691.292,5.09,5.09,0,0,1,1.3.739v-.778Z" transform="translate(-427.553 330.829)" fill="#fff"/>
      <path id="Path_77" data-name="Path 77" d="M520.61-326.737a3.986,3.986,0,0,1,1.565-.292v2.333a2.7,2.7,0,0,0-1.983.816,2.785,2.785,0,0,0-.817,1.983v4.879h-2.333v-9.739h2.333V-326A4.987,4.987,0,0,1,520.61-326.737Z" transform="translate(-479.972 330.916)" fill="#fff"/>
      <path id="Path_78" data-name="Path 78" d="M555.462-327.186h-2.138a3.091,3.091,0,0,1-1.244-.253,3.14,3.14,0,0,1-1.011-.69,3.351,3.351,0,0,1-.681-1.021,3.1,3.1,0,0,1-.252-1.244v-8.476l2.333-.583v2.261h1.361l.583,2.333h-1.944v4.465a.845.845,0,0,0,.253.622.821.821,0,0,0,.6.253h1.555Z" transform="translate(-507.059 341.085)" fill="#fff"/>
      <path id="Path_79" data-name="Path 79" d="M577.866-333.234l-4.277-13.608h2.449l3.013,9.584,2.78-9.584h2.449l3.013,9.584,2.78-9.584h2.43l-3.966,13.608h-2.43l-3.013-9.584-2.8,9.584Z" transform="translate(-526.255 347.134)" fill="#fff"/>
      <path id="Path_80" data-name="Path 80" d="M681.191-320.624H676.1a2.412,2.412,0,0,0,.564.8,2.727,2.727,0,0,0,.914.612,2.824,2.824,0,0,0,1.069.2,2.727,2.727,0,0,0,1.419-.369l2.43.972a4.9,4.9,0,0,1-1.691,1.273,5.1,5.1,0,0,1-2.158.457,5.045,5.045,0,0,1-2-.4,5.134,5.134,0,0,1-1.633-1.1,5.133,5.133,0,0,1-1.1-1.633,4.988,4.988,0,0,1-.4-1.983,5.04,5.04,0,0,1,.4-2,5.136,5.136,0,0,1,1.1-1.633,5.142,5.142,0,0,1,1.633-1.1,5.048,5.048,0,0,1,2-.4,5.05,5.05,0,0,1,2,.4,5.142,5.142,0,0,1,1.633,1.1,5.142,5.142,0,0,1,1.1,1.633,5.047,5.047,0,0,1,.4,2,4.81,4.81,0,0,1-.136,1.166Zm-2.546-3.966a2.784,2.784,0,0,0-1.983.816,2.632,2.632,0,0,0-.564.816h5.093a2.639,2.639,0,0,0-.564-.816A2.7,2.7,0,0,0,678.644-324.589Z" transform="translate(-608.04 330.829)" fill="#fff"/>
      <path id="Path_81" data-name="Path 81" d="M741.276-343.207a4.842,4.842,0,0,1,1.973.4,4.783,4.783,0,0,1,1.565,1.1,5.073,5.073,0,0,1,1.03,1.633,5.4,5.4,0,0,1,.369,2,5.344,5.344,0,0,1-.369,1.983,5.074,5.074,0,0,1-1.03,1.633,4.779,4.779,0,0,1-1.565,1.1,4.839,4.839,0,0,1-1.973.4,4.752,4.752,0,0,1-2.08-.447l.836-2.08a2.7,2.7,0,0,0,1.05.194,2.659,2.659,0,0,0,1.983-.816,2.677,2.677,0,0,0,.817-1.963,2.7,2.7,0,0,0-.817-1.983,2.7,2.7,0,0,0-1.983-.816,2.784,2.784,0,0,0-1.983.816,2.7,2.7,0,0,0-.816,1.983v4.86h-2.333v-13.627h2.333v4.666a5.077,5.077,0,0,1,1.3-.739A4.58,4.58,0,0,1,741.276-343.207Z" transform="translate(-659.144 347.134)" fill="#fff"/>
    </g>
    <g id="Group_64" data-name="Group 64" transform="translate(107.472 -388.32)">
      <path id="Path_82" data-name="Path 82" d="M313.294-241.99a.353.353,0,0,1-.113.268.366.366,0,0,1-.268.113H312.9a.366.366,0,0,1-.268-.113.353.353,0,0,1-.113-.268v-1.732a1.466,1.466,0,0,1,.444-1.071,1.46,1.46,0,0,1,1.071-.444,1.336,1.336,0,0,1,1.131.5,1.327,1.327,0,0,1,1.128-.5,1.459,1.459,0,0,1,1.071.444,1.466,1.466,0,0,1,.444,1.071v1.732a.364.364,0,0,1-.11.268.37.37,0,0,1-.271.113h-.006a.352.352,0,0,1-.268-.113.353.353,0,0,1-.113-.268v-1.732a.717.717,0,0,0-.217-.526.72.72,0,0,0-.529-.217.716.716,0,0,0-.526.217.717.717,0,0,0-.217.526v1.732a.353.353,0,0,1-.113.268.353.353,0,0,1-.268.113h-.006a.369.369,0,0,1-.271-.113.353.353,0,0,1-.113-.268v-1.732a.717.717,0,0,0-.217-.526.716.716,0,0,0-.526-.217.717.717,0,0,0-.526.217.717.717,0,0,0-.217.526Z" transform="translate(-312.522 246.528)" fill="#fff"/>
      <path id="Path_83" data-name="Path 83" d="M348.222-244.7a1.748,1.748,0,0,1,.532,1.282v1.433a.353.353,0,0,1-.113.268.366.366,0,0,1-.268.113h-.009a.366.366,0,0,1-.268-.113.353.353,0,0,1-.113-.268,1.364,1.364,0,0,1-1.043.381,1.747,1.747,0,0,1-1.282-.532,1.747,1.747,0,0,1-.532-1.282,1.747,1.747,0,0,1,.532-1.282,1.747,1.747,0,0,1,1.282-.532A1.748,1.748,0,0,1,348.222-244.7Zm-2.022.545a1.011,1.011,0,0,0-.3.737,1.014,1.014,0,0,0,.3.74,1.014,1.014,0,0,0,.74.3,1,1,0,0,0,.737-.3,1.009,1.009,0,0,0,.306-.74,1.006,1.006,0,0,0-.306-.737,1,1,0,0,0-.737-.305A1.009,1.009,0,0,0,346.2-244.16Z" transform="translate(-339.208 246.528)" fill="#fff"/>
      <path id="Path_84" data-name="Path 84" d="M368.977-252.352a.372.372,0,0,1,.268.11.37.37,0,0,1,.113.271v2.182h.12a1.019,1.019,0,0,0,.7-.268,1.011,1.011,0,0,0,.334-.662.375.375,0,0,1,.126-.242.359.359,0,0,1,.255-.1h.009a.363.363,0,0,1,.28.126.367.367,0,0,1,.1.255.278.278,0,0,1,0,.041,1.582,1.582,0,0,1-.6,1.184,1.571,1.571,0,0,1,.51.576,1.774,1.774,0,0,1,.242.9v.16a.352.352,0,0,1-.113.268.365.365,0,0,1-.268.113h-.009a.366.366,0,0,1-.268-.113.353.353,0,0,1-.113-.268v-.16a1.018,1.018,0,0,0-.305-.734,1.009,1.009,0,0,0-.737-.3h-.258v1.2a.353.353,0,0,1-.113.268.366.366,0,0,1-.268.113h-.009a.366.366,0,0,1-.268-.113.353.353,0,0,1-.113-.268v-4.157a.37.37,0,0,1,.113-.271.372.372,0,0,1,.268-.11Z" transform="translate(-358.41 252.352)" fill="#fff"/>
      <path id="Path_85" data-name="Path 85" d="M390.146-244.179a.367.367,0,0,1,.038.161.369.369,0,0,1-.025.132.362.362,0,0,1-.2.214l-1.159.523q-.891.4-1.046.476a.894.894,0,0,0,.746.3,1.018,1.018,0,0,0,.611-.2,1.028,1.028,0,0,0,.375-.5.356.356,0,0,1,.365-.258.364.364,0,0,1,.312.164.356.356,0,0,1,.072.211.4.4,0,0,1-.025.135,1.736,1.736,0,0,1-.652.869,1.755,1.755,0,0,1-1.058.343,1.747,1.747,0,0,1-1.282-.532,1.747,1.747,0,0,1-.532-1.282,1.747,1.747,0,0,1,.532-1.282,1.747,1.747,0,0,1,1.282-.532,1.755,1.755,0,0,1,.989.3A1.764,1.764,0,0,1,390.146-244.179Zm-1.647-.28a1.008,1.008,0,0,0-.74.305,1.014,1.014,0,0,0-.3.74v.022l1.76-.791A.887.887,0,0,0,388.5-244.459Z" transform="translate(-373.224 246.528)" fill="#fff"/>
      <path id="Path_86" data-name="Path 86" d="M420.373-244.465a.316.316,0,0,0-.233.094.324.324,0,0,0-.095.233.3.3,0,0,0,.183.284,4.274,4.274,0,0,0,.526.157,1.342,1.342,0,0,1,.558.28.932.932,0,0,1,.261.709,1.067,1.067,0,0,1-.321.778,1.067,1.067,0,0,1-.778.321h-.822a.366.366,0,0,1-.268-.113.353.353,0,0,1-.113-.268V-242a.37.37,0,0,1,.113-.271.367.367,0,0,1,.268-.113h.853a.316.316,0,0,0,.233-.095.316.316,0,0,0,.095-.233.28.28,0,0,0-.18-.261q-.047-.022-.529-.157a1.322,1.322,0,0,1-.558-.29.962.962,0,0,1-.261-.721,1.056,1.056,0,0,1,.321-.775,1.061,1.061,0,0,1,.778-.324h.579a.37.37,0,0,1,.271.113.369.369,0,0,1,.113.271v.006a.352.352,0,0,1-.113.268.369.369,0,0,1-.271.113Z" transform="translate(-399.895 246.528)" fill="#fff"/>
      <path id="Path_87" data-name="Path 87" d="M435.5-241.99a.353.353,0,0,1-.113.268.366.366,0,0,1-.268.113h-.009a.366.366,0,0,1-.268-.113.353.353,0,0,1-.113-.268v-1.732a1.466,1.466,0,0,1,.444-1.071,1.459,1.459,0,0,1,1.071-.444,1.336,1.336,0,0,1,1.131.5,1.327,1.327,0,0,1,1.128-.5,1.459,1.459,0,0,1,1.071.444,1.466,1.466,0,0,1,.444,1.071v1.732a.364.364,0,0,1-.11.268.369.369,0,0,1-.271.113h-.006a.353.353,0,0,1-.268-.113.353.353,0,0,1-.113-.268v-1.732a.717.717,0,0,0-.217-.526.721.721,0,0,0-.529-.217.717.717,0,0,0-.526.217.717.717,0,0,0-.217.526v1.732a.353.353,0,0,1-.113.268.353.353,0,0,1-.268.113h-.006a.369.369,0,0,1-.271-.113.353.353,0,0,1-.113-.268v-1.732a.717.717,0,0,0-.217-.526.717.717,0,0,0-.526-.217.716.716,0,0,0-.526.217.717.717,0,0,0-.217.526Z" transform="translate(-412.549 246.528)" fill="#fff"/>
      <path id="Path_88" data-name="Path 88" d="M470.433-244.7a1.747,1.747,0,0,1,.532,1.282v1.433a.353.353,0,0,1-.113.268.366.366,0,0,1-.268.113h-.009a.365.365,0,0,1-.268-.113.353.353,0,0,1-.113-.268,1.363,1.363,0,0,1-1.042.381,1.747,1.747,0,0,1-1.282-.532,1.746,1.746,0,0,1-.532-1.282,1.747,1.747,0,0,1,.532-1.282,1.747,1.747,0,0,1,1.282-.532A1.748,1.748,0,0,1,470.433-244.7Zm-2.022.545a1.011,1.011,0,0,0-.3.737,1.014,1.014,0,0,0,.3.74,1.014,1.014,0,0,0,.74.3,1,1,0,0,0,.737-.3,1.008,1.008,0,0,0,.305-.74,1,1,0,0,0-.305-.737,1,1,0,0,0-.737-.305A1.008,1.008,0,0,0,468.411-244.16Z" transform="translate(-439.236 246.528)" fill="#fff"/>
      <path id="Path_89" data-name="Path 89" d="M492.365-245.237a.37.37,0,0,1,.271.113.376.376,0,0,1,.11.271v.006a.365.365,0,0,1-.11.268.369.369,0,0,1-.271.113h-.18a.6.6,0,0,0-.438.18.612.612,0,0,0-.18.438v1.858a.353.353,0,0,1-.113.268.366.366,0,0,1-.268.113h-.009a.365.365,0,0,1-.268-.113.353.353,0,0,1-.113-.268v-1.858a1.371,1.371,0,0,1,.406-.983,1.339,1.339,0,0,1,.983-.406Z" transform="translate(-458.438 246.528)" fill="#fff"/>
      <path id="Path_90" data-name="Path 90" d="M503.838-252.352a.372.372,0,0,1,.268.11.37.37,0,0,1,.113.271v.91h.472a.366.366,0,0,1,.268.113.37.37,0,0,1,.113.271v.006a.353.353,0,0,1-.113.268.366.366,0,0,1-.268.113h-.472v1.868a.208.208,0,0,0,.063.154.213.213,0,0,0,.157.063h.252a.366.366,0,0,1,.268.113.37.37,0,0,1,.113.271v.006a.353.353,0,0,1-.113.268.366.366,0,0,1-.268.113h-.252a.962.962,0,0,1-.7-.29.958.958,0,0,1-.29-.7v-3.55a.37.37,0,0,1,.113-.271.372.372,0,0,1,.268-.11Z" transform="translate(-468.792 252.352)" fill="#fff"/>
      <path id="Path_91" data-name="Path 91" d="M527.273-245.152a.351.351,0,0,1,.268.366v.016a.36.36,0,0,1-.154.306.378.378,0,0,1-.221.076.424.424,0,0,1-.123-.019,1.018,1.018,0,0,0-.318-.05,1.008,1.008,0,0,0-.74.305,1.014,1.014,0,0,0-.3.74,1.009,1.009,0,0,0,.3.737,1.008,1.008,0,0,0,.74.306,1.018,1.018,0,0,0,.318-.05.4.4,0,0,1,.12-.019.382.382,0,0,1,.224.076.363.363,0,0,1,.154.309.354.354,0,0,1-.268.365,1.842,1.842,0,0,1-.548.082,1.747,1.747,0,0,1-1.282-.532,1.747,1.747,0,0,1-.532-1.282,1.747,1.747,0,0,1,.532-1.282,1.747,1.747,0,0,1,1.282-.532A1.787,1.787,0,0,1,527.273-245.152Z" transform="translate(-486.36 246.528)" fill="#fff"/>
      <path id="Path_92" data-name="Path 92" d="M542.741-252.352a.372.372,0,0,1,.268.11.37.37,0,0,1,.113.271v1.1a1.254,1.254,0,0,1,.753-.186,1.464,1.464,0,0,1,1.074.447,1.468,1.468,0,0,1,.447,1.077v1.723a.353.353,0,0,1-.113.268.353.353,0,0,1-.268.113h-.006a.37.37,0,0,1-.271-.113.353.353,0,0,1-.113-.268v-1.723a.731.731,0,0,0-.217-.532.726.726,0,0,0-.532-.221.729.729,0,0,0-.536.221.73.73,0,0,0-.217.532v1.723a.353.353,0,0,1-.113.268.366.366,0,0,1-.268.113h-.009a.365.365,0,0,1-.268-.113.353.353,0,0,1-.113-.268v-4.157a.37.37,0,0,1,.113-.271.371.371,0,0,1,.268-.11Z" transform="translate(-500.634 252.352)" fill="#fff"/>
      <path id="Path_93" data-name="Path 93" d="M563.893-245.237a1.747,1.747,0,0,1,1.282.532,1.747,1.747,0,0,1,.532,1.282,1.747,1.747,0,0,1-.532,1.282,1.747,1.747,0,0,1-1.282.532,1.747,1.747,0,0,1-1.282-.532,1.747,1.747,0,0,1-.532-1.282,1.747,1.747,0,0,1,.532-1.282A1.747,1.747,0,0,1,563.893-245.237Zm0,.778a1.008,1.008,0,0,0-.74.305,1.015,1.015,0,0,0-.3.74,1.009,1.009,0,0,0,.3.737,1.008,1.008,0,0,0,.74.306,1,1,0,0,0,.737-.306,1,1,0,0,0,.306-.737,1.008,1.008,0,0,0-.306-.74A1,1,0,0,0,563.893-244.459Z" transform="translate(-516.781 246.528)" fill="#fff"/>
      <path id="Path_94" data-name="Path 94" d="M585.806-251.456a.424.424,0,0,1-.312-.129.425.425,0,0,1-.129-.312.421.421,0,0,1,.129-.309.424.424,0,0,1,.312-.129.421.421,0,0,1,.309.129.41.41,0,0,1,.132.309.413.413,0,0,1-.132.312A.421.421,0,0,1,585.806-251.456Zm0,.41a.353.353,0,0,1,.268.113.37.37,0,0,1,.113.271v2.863a.353.353,0,0,1-.113.268.353.353,0,0,1-.268.113H585.8a.369.369,0,0,1-.271-.113.353.353,0,0,1-.113-.268v-2.863a.37.37,0,0,1,.113-.271.37.37,0,0,1,.271-.113Z" transform="translate(-535.841 252.338)" fill="#fff"/>
      <path id="Path_95" data-name="Path 95" d="M595.883-245.152a.351.351,0,0,1,.268.366v.016a.36.36,0,0,1-.155.306.378.378,0,0,1-.22.076.423.423,0,0,1-.123-.019,1.02,1.02,0,0,0-.318-.05,1.009,1.009,0,0,0-.74.305,1.015,1.015,0,0,0-.3.74,1.009,1.009,0,0,0,.3.737,1.008,1.008,0,0,0,.74.306,1.02,1.02,0,0,0,.318-.05.4.4,0,0,1,.12-.019.382.382,0,0,1,.224.076.362.362,0,0,1,.155.309.354.354,0,0,1-.268.365,1.84,1.84,0,0,1-.548.082,1.747,1.747,0,0,1-1.282-.532,1.747,1.747,0,0,1-.532-1.282,1.748,1.748,0,0,1,.532-1.282,1.747,1.747,0,0,1,1.282-.532A1.785,1.785,0,0,1,595.883-245.152Z" transform="translate(-542.516 246.528)" fill="#fff"/>
      <path id="Path_96" data-name="Path 96" d="M613.9-244.179a.367.367,0,0,1,.038.161.367.367,0,0,1-.025.132.361.361,0,0,1-.2.214l-1.159.523q-.891.4-1.046.476a.894.894,0,0,0,.747.3,1.019,1.019,0,0,0,.611-.2,1.03,1.03,0,0,0,.375-.5.356.356,0,0,1,.365-.258.364.364,0,0,1,.312.164.356.356,0,0,1,.072.211.4.4,0,0,1-.025.135,1.734,1.734,0,0,1-.652.869,1.756,1.756,0,0,1-1.058.343,1.747,1.747,0,0,1-1.282-.532,1.747,1.747,0,0,1-.532-1.282,1.748,1.748,0,0,1,.532-1.282,1.747,1.747,0,0,1,1.282-.532,1.755,1.755,0,0,1,.989.3A1.763,1.763,0,0,1,613.9-244.179Zm-1.647-.28a1.009,1.009,0,0,0-.74.305,1.014,1.014,0,0,0-.3.74v.022l1.761-.791A.887.887,0,0,0,612.253-244.459Z" transform="translate(-556.364 246.528)" fill="#fff"/>
    </g>
    <g id="Group_65" data-name="Group 65" transform="translate(62 -418.472)">
      <path id="Path_97" data-name="Path 97" d="M77.06-370.871,72.988-366.8a2.61,2.61,0,0,1-3.444.229l-.019-.015a19.505,19.505,0,0,1-1.788-1.581h0a19.646,19.646,0,0,1,0-27.749A19.729,19.729,0,0,1,70-397.863C67.44-393.551,62.207-381.336,77.06-370.871Z" transform="translate(-62 401.604)" fill="url(#linear-gradient)"/>
      <path id="Path_98" data-name="Path 98" d="M204.928-395.425h0a19.644,19.644,0,0,1,0,27.748,19.727,19.727,0,0,1-2.33,1.994c2.529-4.19,8.011-16.527-6.942-27.09l4.02-4.021a2.612,2.612,0,0,1,3.446-.229l.018.015A19.5,19.5,0,0,1,204.928-395.425Z" transform="translate(-171.396 401.359)" fill="url(#linear-gradient-2)"/>
      <path id="Path_99" data-name="Path 99" d="M129.193-371.162l-5.007,5.007a5.915,5.915,0,0,1-9.732-2.086c.777,2.336,3.115,5.99,10.116,8.283l-.051.008c6.268,2.053,8.8,5.2,9.818,7.51l0,0q.06.1.115.207a5.259,5.259,0,0,1-1.427,6.546c-4.8,3.823-11.894,2.758-14,2.331A1.064,1.064,0,0,0,118-343h0a1.065,1.065,0,0,0,.492,1.7,19.673,19.673,0,0,0,17.639-2.774C138.665-348.262,144.146-360.6,129.193-371.162Z" transform="translate(-104.933 379.749)" fill="url(#linear-gradient-3)"/>
      <path id="Path_100" data-name="Path 100" d="M99.192-387.643l5.007-5.007a5.915,5.915,0,0,1,9.732,2.086c-.777-2.336-3.115-5.99-10.116-8.284l.051-.007c-6.27-2.053-8.8-5.2-9.819-7.512a5.757,5.757,0,0,1-.741-3.494,3.806,3.806,0,0,1,1.062-2.366c4.749-4.874,12.733-3.684,14.989-3.226a1.064,1.064,0,0,0,1.025-.354h0a1.064,1.064,0,0,0-.492-1.7,19.672,19.672,0,0,0-17.639,2.774C89.72-410.542,84.238-398.205,99.192-387.643Z" transform="translate(-84.224 418.472)" fill="url(#linear-gradient-4)"/>
    </g>
  </g>
</svg>
