<svg xmlns="http://www.w3.org/2000/svg" width="194.451" height="100.462" viewBox="0 0 194.451 100.462">
  <g id="Group_86" data-name="Group 86" transform="translate(-111.725 -243.283)">
    <text id="PALACE" transform="translate(161.691 320.797)" fill="#fff" stroke="#fff" stroke-miterlimit="10" stroke-width="1" font-size="15.295" font-family="BaskOldFace, Baskerville Old Face"><tspan x="0" y="0">PALACE</tspan></text>
    <g id="Group_83" data-name="Group 83">
      <path id="Path_163" data-name="Path 163" d="M296.641,253.471q-9.534-10.188-27.96-10.188h-25.5q.017,6.726.032,13.452l8.66-.088q-.039-1.829-.079-3.657l15.158.13q14.635,0,21.459,7.26t6.821,22.951q0,15.574-6.821,22.834t-21.459,7.261l-14.794.107-.05-40.823-9.012-.03q.042,25.291.085,50.582h25.5q18.484,0,27.989-10.129t9.506-29.8Q306.176,263.659,296.641,253.471Z" fill="#bea95e"/>
    </g>
    <g id="Group_85" data-name="Group 85">
      <g id="Group_84" data-name="Group 84">
        <path id="Path_164" data-name="Path 164" d="M279.285,325.258a41.77,41.77,0,0,1-5.5.7,7.564,7.564,0,0,1-.619,1.336c-2.411,4.1-8.174,4.736-12.692,5.356-9.155,1.257-15.668.814-25.921.739-5.111-.038-9.244.03-11.772.087v10.267h31.555a46,46,0,0,0,15.747-2.342,23.32,23.32,0,0,0,13.679-13.541,21.927,21.927,0,0,0,1.083-4.1A41.745,41.745,0,0,1,279.285,325.258Z" fill="#fff"/>
        <path id="Path_165" data-name="Path 165" d="M265.523,297.433a30.236,30.236,0,0,0-10.64-1.112q.06,4.569.119,9.137a27.008,27.008,0,0,1,3.734.226,23.812,23.812,0,0,1,2.931.59,34.37,34.37,0,0,1,9.076,4.111h.012s1.341-.092,2.523-.234a30.541,30.541,0,0,0,5.306-1.072,21.324,21.324,0,0,0,2.539-1.013A31.441,31.441,0,0,0,265.523,297.433Z" fill="#fff"/>
      </g>
    </g>
    <path id="Path_166" data-name="Path 166" d="M278.587,275.149a26.419,26.419,0,0,0-3.667-7.241q-2.65-3.79-8.536-6.071a40.205,40.205,0,0,0-14.452-2.28H222.78v84.188l8.748-.007q.162-36.921.323-73.843l18.848.016q8.443,0,12.788,2.863t4.345,10.144c0,.2,0,.513-.023.921a14.087,14.087,0,0,1-4.075,8.85,13.442,13.442,0,0,1-8.851,3.632q.06,4.569.119,9.137c.3-.07.742-.176,1.284-.307,5.887-1.416,8.83-2.124,9.608-2.436a24.544,24.544,0,0,0,9.637-7.628c.262-.359.458-.649.591-.846a21.326,21.326,0,0,0,2.465-4.951A22.773,22.773,0,0,0,278.587,275.149Z" fill="#fff"/>
    <rect id="Rectangle_127" data-name="Rectangle 127" width="5.941" height="9.747" transform="translate(234.402 296.21)" fill="#fff"/>
    <rect id="Rectangle_128" data-name="Rectangle 128" width="96.001" height="9.747" transform="translate(123.939 296.21)" fill="#fff"/>
    <rect id="Rectangle_129" data-name="Rectangle 129" width="9.379" height="28.861" transform="translate(111.724 295.956)" fill="#bea95e"/>
    <rect id="Rectangle_130" data-name="Rectangle 130" width="8.364" height="12.617" transform="translate(123.826 308.332)" fill="#fff"/>
    <text id="palasi" transform="translate(162.272 293.136)" fill="#fff" font-size="14.645" font-family="SakarMtavr" letter-spacing="0.041em"><tspan x="0" y="0">palasi</tspan></text>
  </g>
</svg>
