<svg xmlns="http://www.w3.org/2000/svg" xmlns:xlink="http://www.w3.org/1999/xlink" width="99" height="100" viewBox="0 0 99 100">
  <defs>
    <filter id="Ellipse_13" x="0" y="0" width="99" height="100" filterUnits="userSpaceOnUse">
      <feOffset dy="3" input="SourceAlpha"/>
      <feGaussianBlur stdDeviation="7.5" result="blur"/>
      <feFlood flood-opacity="0.102"/>
      <feComposite operator="in" in2="blur"/>
      <feComposite in="SourceGraphic"/>
    </filter>
  </defs>
  <g id="messenger" transform="translate(-1743.5 -1240.5)">
    <g transform="matrix(1, 0, 0, 1, 1743.5, 1240.5)" filter="url(#Ellipse_13)">
      <ellipse id="Ellipse_13-2" data-name="Ellipse 13" cx="27" cy="27.5" rx="27" ry="27.5" transform="translate(22.5 19.5)" fill="#fff"/>
    </g>
    <g id="messenger-2" data-name="messenger" transform="translate(1773.79 1268.815)">
      <path id="Path_226" data-name="Path 226" d="M19.21,0A18.818,18.818,0,0,0,.025,18.389,18.038,18.038,0,0,0,6.42,32.074v5.5a.8.8,0,0,0,1.223.678L12.1,35.468a19.8,19.8,0,0,0,7.111,1.306A18.818,18.818,0,0,0,38.394,18.389,18.818,18.818,0,0,0,19.21,0Z" transform="translate(0 0)" fill="#609ff5"/>
      <path id="Path_227" data-name="Path 227" d="M110.791,171.016a.8.8,0,0,0-1.023-.224l-8.313,4.532-5.172-4.435a.8.8,0,0,0-1.085.042L85.6,180.523a.8.8,0,0,0,.948,1.266l8.313-4.532,5.177,4.436a.8.8,0,0,0,1.085-.042l9.592-9.592A.8.8,0,0,0,110.791,171.016Z" transform="translate(-78.952 -157.903)" fill="#fafafa"/>
    </g>
  </g>
</svg>
