<svg xmlns="http://www.w3.org/2000/svg" xmlns:xlink="http://www.w3.org/1999/xlink" width="122" height="36.27" viewBox="0 0 122 36.27">
  <defs>
    <linearGradient id="linear-gradient" x1="-0.024" y1="0.638" x2="0.484" y2="0.524" gradientUnits="objectBoundingBox">
      <stop offset="0" stop-color="#e60019"/>
      <stop offset="1" stop-color="#06297e"/>
    </linearGradient>
    <linearGradient id="linear-gradient-2" x1="0.467" y1="0.488" x2="0.965" y2="0.383" xlink:href="#linear-gradient"/>
    <linearGradient id="linear-gradient-3" x1="0.402" y1="0.519" x2="0.932" y2="0.42" xlink:href="#linear-gradient"/>
    <linearGradient id="linear-gradient-4" x1="0.039" y1="0.707" x2="0.497" y2="0.532" xlink:href="#linear-gradient"/>
  </defs>
  <g id="Smartweb" transform="translate(-142 -50.556)">
    <g id="Group_91" data-name="Group 91" transform="translate(183.883 62.252)">
      <path id="Path_196" data-name="Path 196" d="M401.607,129.749a4.185,4.185,0,0,1-.286,1.583,3.317,3.317,0,0,1-.814,1.2,3.646,3.646,0,0,1-1.279.76,4.975,4.975,0,0,1-1.681.268,6.962,6.962,0,0,1-2.647-.474A7.566,7.566,0,0,1,392.985,132l1.485-1.485a4.246,4.246,0,0,0,1.324.823,3.576,3.576,0,0,0,.841.232,4.932,4.932,0,0,0,.644.054,2.921,2.921,0,0,0,.85-.116,2.4,2.4,0,0,0,.671-.313,1.4,1.4,0,0,0,.608-1.181,1.174,1.174,0,0,0-.322-.805,1.874,1.874,0,0,0-.644-.465,3.428,3.428,0,0,0-.68-.286q-.358-.107-.644-.2a.667.667,0,0,0-.161-.045.282.282,0,0,1-.125-.045.266.266,0,0,1-.107-.036q-.376-.107-1.082-.376a7.04,7.04,0,0,1-1.4-.733,3.177,3.177,0,0,1-1.628-2.683,3.909,3.909,0,0,1,.367-1.78,3.407,3.407,0,0,1,.957-1.181,3.734,3.734,0,0,1,1.315-.653,5.417,5.417,0,0,1,1.422-.2,6.67,6.67,0,0,1,2.164.3,8.064,8.064,0,0,1,1.4.608,4.07,4.07,0,0,1,.456.313q.188.152.331.277l-1.521,1.539a3.841,3.841,0,0,0-.984-.733,3.621,3.621,0,0,0-1.574-.358,2.944,2.944,0,0,0-.715.089,2.761,2.761,0,0,0-.626.233,1.446,1.446,0,0,0-.787,1.27,1.153,1.153,0,0,0,.322.823,2.159,2.159,0,0,0,.644.483,3.713,3.713,0,0,0,.716.286q.376.108.7.2l.215.054q.089.036.34.107a5.376,5.376,0,0,1,.59.215q.339.143.742.34a6.452,6.452,0,0,1,.8.465A3.252,3.252,0,0,1,401.607,129.749Z" transform="translate(-392.609 -120.537)" fill="#262626"/>
      <path id="Path_197" data-name="Path 197" d="M461.921,142.05a2.868,2.868,0,0,1,1.315.286,2.514,2.514,0,0,1,.921.787,3.6,3.6,0,0,1,.537,1.162,5.484,5.484,0,0,1,.179,1.431v5.527h-2.147v-5.527a1.465,1.465,0,0,0-.447-1.073,1.512,1.512,0,0,0-2.147,0,1.464,1.464,0,0,0-.447,1.073v5.527h-2.146v-5.527a1.465,1.465,0,0,0-.447-1.073,1.309,1.309,0,0,0-.492-.34,1.594,1.594,0,0,0-.581-.107,1.449,1.449,0,0,0-1.091.447,1.464,1.464,0,0,0-.447,1.073v5.527h-2.147V142.3h2.147v.787a5.6,5.6,0,0,1,1.091-.742,2.512,2.512,0,0,1,1.163-.3,2.472,2.472,0,0,1,1.324.322,3.3,3.3,0,0,1,.93.894,3.861,3.861,0,0,1,1.252-.868A4.021,4.021,0,0,1,461.921,142.05Z" transform="translate(-442.352 -138.455)" fill="#262626"/>
      <path id="Path_198" data-name="Path 198" d="M542.157,142.283v8.962H540.01v-4.472a2.565,2.565,0,0,0-2.576-2.576,2.579,2.579,0,0,0-1.825.751,2.569,2.569,0,0,0,0,3.631,2.311,2.311,0,0,0,.832.564,2.67,2.67,0,0,0,.993.188,2.488,2.488,0,0,0,.966-.179l.769,1.914a4.229,4.229,0,0,1-1.914.412,4.451,4.451,0,0,1-1.815-.367A4.392,4.392,0,0,1,534,150.1a4.662,4.662,0,0,1-.948-1.5,4.909,4.909,0,0,1-.34-1.824,4.959,4.959,0,0,1,.34-1.843,4.663,4.663,0,0,1,.948-1.5,4.4,4.4,0,0,1,1.44-1.011,4.452,4.452,0,0,1,1.815-.367,4.221,4.221,0,0,1,1.556.268,4.69,4.69,0,0,1,1.2.68v-.715Z" transform="translate(-509.298 -138.455)" fill="#262626"/>
      <path id="Path_199" data-name="Path 199" d="M600,142.212a3.666,3.666,0,0,1,1.44-.268v2.146a2.484,2.484,0,0,0-1.824.751,2.563,2.563,0,0,0-.751,1.825v4.49h-2.147v-8.962h2.147v.7A4.589,4.589,0,0,1,600,142.212Z" transform="translate(-562.605 -138.366)" fill="#262626"/>
      <path id="Path_200" data-name="Path 200" d="M634.689,140.814h-1.968a2.846,2.846,0,0,1-1.145-.233,2.89,2.89,0,0,1-.93-.635,3.084,3.084,0,0,1-.626-.939,2.847,2.847,0,0,1-.232-1.145v-7.8l2.147-.537v2.081h1.252l.536,2.146h-1.789v4.109a.777.777,0,0,0,.233.572.755.755,0,0,0,.554.233h1.431Z" transform="translate(-590.15 -128.025)" fill="#262626"/>
      <path id="Path_201" data-name="Path 201" d="M657.162,134.663l-3.935-12.521h2.254l2.773,8.819,2.558-8.819h2.254l2.773,8.819,2.558-8.819h2.236l-3.649,12.521h-2.236l-2.772-8.819-2.576,8.819Z" transform="translate(-609.672 -121.874)" fill="#262626"/>
      <path id="Path_202" data-name="Path 202" d="M760.154,147.846h-4.687a2.22,2.22,0,0,0,.519.733,2.513,2.513,0,0,0,.841.564,2.6,2.6,0,0,0,.984.188,2.509,2.509,0,0,0,1.306-.34l2.236.894a4.5,4.5,0,0,1-1.556,1.172,4.735,4.735,0,0,1-6.341-2.459,4.591,4.591,0,0,1-.367-1.824,4.638,4.638,0,0,1,.367-1.843,4.713,4.713,0,0,1,2.513-2.513,4.81,4.81,0,0,1,3.685,0,4.712,4.712,0,0,1,2.513,2.513,4.645,4.645,0,0,1,.367,1.843,4.426,4.426,0,0,1-.125,1.073ZM757.81,144.2a2.562,2.562,0,0,0-1.824.751,2.422,2.422,0,0,0-.519.751h4.687a2.432,2.432,0,0,0-.519-.751A2.484,2.484,0,0,0,757.81,144.2Z" transform="translate(-692.844 -138.455)" fill="#262626"/>
      <path id="Path_203" data-name="Path 203" d="M820.388,125.487a4.455,4.455,0,0,1,1.815.367,4.4,4.4,0,0,1,1.44,1.011,4.67,4.67,0,0,1,.948,1.5,5.115,5.115,0,0,1,0,3.667,4.672,4.672,0,0,1-.948,1.5,4.4,4.4,0,0,1-1.44,1.011,4.453,4.453,0,0,1-1.815.367,4.374,4.374,0,0,1-1.914-.411l.769-1.914a2.49,2.49,0,0,0,.966.179,2.565,2.565,0,0,0,2.576-2.558,2.565,2.565,0,0,0-2.576-2.576,2.563,2.563,0,0,0-1.825.751,2.484,2.484,0,0,0-.751,1.825v4.472h-2.147V122.142h2.147v4.293a4.663,4.663,0,0,1,1.2-.68A4.212,4.212,0,0,1,820.388,125.487Z" transform="translate(-744.814 -121.874)" fill="#262626"/>
    </g>
    <g id="Group_92" data-name="Group 92" transform="translate(184.866 78.539)">
      <path id="Path_204" data-name="Path 204" d="M399.221,228.339a.333.333,0,0,1-.107.252.345.345,0,0,1-.252.107h-.009a.345.345,0,0,1-.253-.107.333.333,0,0,1-.107-.252v-1.633a1.429,1.429,0,0,1,1.428-1.428,1.442,1.442,0,0,0,2.129,0,1.43,1.43,0,0,1,1.428,1.428v1.633a.343.343,0,0,1-.1.252.348.348,0,0,1-.256.107h-.006a.365.365,0,0,1-.359-.359v-1.633a.7.7,0,1,0-1.4,0v1.633a.365.365,0,0,1-.359.359h-.006a.348.348,0,0,1-.255-.107.332.332,0,0,1-.107-.252v-1.633a.7.7,0,1,0-1.4,0Z" transform="translate(-398.494 -224.059)" fill="#262626"/>
      <path id="Path_205" data-name="Path 205" d="M434.8,225.779a1.648,1.648,0,0,1,.5,1.209v1.351a.333.333,0,0,1-.107.252.345.345,0,0,1-.253.107h-.009a.345.345,0,0,1-.252-.107.332.332,0,0,1-.107-.252,1.286,1.286,0,0,1-.983.359,1.711,1.711,0,1,1,1.209-2.919Zm-1.906.514a.986.986,0,1,0,.7-.288A.952.952,0,0,0,432.895,226.292Z" transform="translate(-426.302 -224.059)" fill="#262626"/>
      <path id="Path_206" data-name="Path 206" d="M456.273,217.992a.36.36,0,0,1,.359.359v2.058h.113a.974.974,0,0,0,.977-.876.355.355,0,0,1,.119-.229.339.339,0,0,1,.24-.095h.009a.342.342,0,0,1,.264.119.346.346,0,0,1,.095.241.265.265,0,0,1,0,.039,1.491,1.491,0,0,1-.57,1.117,1.481,1.481,0,0,1,.481.543,1.673,1.673,0,0,1,.229.852v.151a.333.333,0,0,1-.107.252.345.345,0,0,1-.252.107h-.009a.346.346,0,0,1-.253-.107.333.333,0,0,1-.107-.252v-.151a.979.979,0,0,0-.983-.977h-.243v1.128a.333.333,0,0,1-.107.252.345.345,0,0,1-.253.107h-.009a.345.345,0,0,1-.252-.107.332.332,0,0,1-.107-.252v-3.92a.36.36,0,0,1,.359-.359Z" transform="translate(-446.31 -217.992)" fill="#262626"/>
      <path id="Path_207" data-name="Path 207" d="M477.7,226.275a.34.34,0,0,1,.012.276.341.341,0,0,1-.19.2l-1.093.493q-.841.38-.986.448a.843.843,0,0,0,.7.285.96.96,0,0,0,.576-.187.971.971,0,0,0,.353-.475.335.335,0,0,1,.344-.243.343.343,0,0,1,.294.154.335.335,0,0,1,.068.2.374.374,0,0,1-.024.128,1.638,1.638,0,0,1-.615.82,1.708,1.708,0,1,1,.555-2.1Zm-1.553-.264a.979.979,0,0,0-.983.986v.021l1.66-.746A.836.836,0,0,0,476.149,226.01Z" transform="translate(-461.746 -224.059)" fill="#262626"/>
      <path id="Path_208" data-name="Path 208" d="M508.847,226a.3.3,0,0,0-.22.089.306.306,0,0,0-.089.22.286.286,0,0,0,.172.267,4.025,4.025,0,0,0,.5.148,1.265,1.265,0,0,1,.526.264.879.879,0,0,1,.246.668,1.034,1.034,0,0,1-1.036,1.036h-.775a.345.345,0,0,1-.252-.107.332.332,0,0,1-.107-.252v-.006a.365.365,0,0,1,.359-.362h.8a.3.3,0,0,0,.309-.309.264.264,0,0,0-.169-.247q-.044-.021-.5-.148a1.244,1.244,0,0,1-.526-.273.907.907,0,0,1-.246-.68,1.039,1.039,0,0,1,1.036-1.036h.546a.365.365,0,0,1,.362.362v.006a.332.332,0,0,1-.107.252.348.348,0,0,1-.255.107Z" transform="translate(-489.539 -224.059)" fill="#262626"/>
      <path id="Path_209" data-name="Path 209" d="M524.368,228.339a.332.332,0,0,1-.107.252.345.345,0,0,1-.252.107H524a.345.345,0,0,1-.252-.107.332.332,0,0,1-.107-.252v-1.633a1.429,1.429,0,0,1,1.429-1.428,1.442,1.442,0,0,0,2.129,0,1.429,1.429,0,0,1,1.428,1.428v1.633a.343.343,0,0,1-.1.252.348.348,0,0,1-.255.107h-.006a.365.365,0,0,1-.359-.359v-1.633a.7.7,0,1,0-1.4,0v1.633a.365.365,0,0,1-.359.359h-.006a.348.348,0,0,1-.255-.107.332.332,0,0,1-.107-.252v-1.633a.7.7,0,1,0-1.4,0Z" transform="translate(-502.725 -224.059)" fill="#262626"/>
      <path id="Path_210" data-name="Path 210" d="M559.947,225.779a1.648,1.648,0,0,1,.5,1.209v1.351a.333.333,0,0,1-.107.252.346.346,0,0,1-.253.107h-.009a.345.345,0,0,1-.252-.107.332.332,0,0,1-.107-.252,1.286,1.286,0,0,1-.983.359,1.711,1.711,0,1,1,1.209-2.919Zm-1.906.514a.986.986,0,1,0,.7-.288A.953.953,0,0,0,558.041,226.292Z" transform="translate(-530.533 -224.059)" fill="#262626"/>
      <path id="Path_211" data-name="Path 211" d="M582.531,225.277a.349.349,0,0,1,.255.107.354.354,0,0,1,.1.255v.006a.344.344,0,0,1-.1.252.348.348,0,0,1-.255.107h-.169a.562.562,0,0,0-.413.169.577.577,0,0,0-.169.413v1.752a.332.332,0,0,1-.107.252.345.345,0,0,1-.252.107h-.009a.345.345,0,0,1-.252-.107.332.332,0,0,1-.107-.252v-1.752a1.293,1.293,0,0,1,.383-.927,1.262,1.262,0,0,1,.927-.383Z" transform="translate(-550.542 -224.059)" fill="#262626"/>
      <path id="Path_212" data-name="Path 212" d="M594.374,217.992a.36.36,0,0,1,.359.359v.858h.445a.364.364,0,0,1,.359.362v.006a.333.333,0,0,1-.107.252.345.345,0,0,1-.253.107h-.445V221.7a.2.2,0,0,0,.06.145.2.2,0,0,0,.148.059h.238a.365.365,0,0,1,.359.362v.006a.333.333,0,0,1-.107.252.345.345,0,0,1-.253.107h-.238a.933.933,0,0,1-.935-.932v-3.347a.36.36,0,0,1,.359-.359Z" transform="translate(-561.331 -217.992)" fill="#262626"/>
      <path id="Path_213" data-name="Path 213" d="M618.212,225.357a.331.331,0,0,1,.253.345v.015a.34.34,0,0,1-.146.288.356.356,0,0,1-.208.071.4.4,0,0,1-.116-.018.984.984,0,1,0,0,1.874.373.373,0,0,1,.113-.018.36.36,0,0,1,.211.071.342.342,0,0,1,.146.291.334.334,0,0,1-.253.344,1.739,1.739,0,0,1-.517.077,1.711,1.711,0,0,1,0-3.421A1.683,1.683,0,0,1,618.212,225.357Z" transform="translate(-579.637 -224.059)" fill="#262626"/>
      <path id="Path_214" data-name="Path 214" d="M634.212,217.992a.36.36,0,0,1,.359.359v1.033a1.182,1.182,0,0,1,.71-.175,1.44,1.44,0,0,1,1.434,1.437v1.624a.365.365,0,0,1-.359.359h-.006a.349.349,0,0,1-.255-.107.333.333,0,0,1-.107-.252v-1.624a.708.708,0,1,0-1.417,0v1.624a.332.332,0,0,1-.107.252.345.345,0,0,1-.252.107H634.2a.345.345,0,0,1-.252-.107.332.332,0,0,1-.107-.252v-3.92a.36.36,0,0,1,.359-.359Z" transform="translate(-594.512 -217.992)" fill="#262626"/>
      <path id="Path_215" data-name="Path 215" d="M655.757,225.277a1.713,1.713,0,1,1-1.209.5A1.647,1.647,0,0,1,655.757,225.277Zm0,.733a.984.984,0,1,0,.695.288A.95.95,0,0,0,655.757,226.01Z" transform="translate(-611.337 -224.059)" fill="#262626"/>
      <path id="Path_216" data-name="Path 216" d="M678.308,218.838a.414.414,0,1,1,.291-.707.405.405,0,0,1,0,.585A.4.4,0,0,1,678.308,218.838Zm0,.386a.333.333,0,0,1,.252.107.349.349,0,0,1,.107.255v2.7a.365.365,0,0,1-.359.359H678.3a.348.348,0,0,1-.255-.107.333.333,0,0,1-.107-.252v-2.7a.365.365,0,0,1,.362-.362Z" transform="translate(-631.198 -218.006)" fill="#262626"/>
      <path id="Path_217" data-name="Path 217" d="M688.471,225.357a.331.331,0,0,1,.253.345v.015a.339.339,0,0,1-.146.288.356.356,0,0,1-.208.071.4.4,0,0,1-.116-.018.984.984,0,1,0,0,1.874.372.372,0,0,1,.113-.018.36.36,0,0,1,.211.071.342.342,0,0,1,.146.291.334.334,0,0,1-.253.344,1.738,1.738,0,0,1-.517.077,1.711,1.711,0,0,1,0-3.421A1.682,1.682,0,0,1,688.471,225.357Z" transform="translate(-638.154 -224.059)" fill="#262626"/>
      <path id="Path_218" data-name="Path 218" d="M706.832,226.275a.356.356,0,0,1-.178.478l-1.093.493q-.84.38-.986.448a.843.843,0,0,0,.7.285.96.96,0,0,0,.576-.187.971.971,0,0,0,.353-.475.335.335,0,0,1,.344-.243.343.343,0,0,1,.294.154.336.336,0,0,1,.068.2.372.372,0,0,1-.024.128,1.637,1.637,0,0,1-.615.82,1.708,1.708,0,1,1,.555-2.1Zm-1.553-.264a.979.979,0,0,0-.983.986v.021l1.66-.746A.836.836,0,0,0,705.279,226.01Z" transform="translate(-652.584 -224.059)" fill="#262626"/>
    </g>
    <g id="Group_93" data-name="Group 93" transform="translate(142 50.556)">
      <path id="Path_219" data-name="Path 219" d="M155.858,95.989l-3.747,3.747a2.4,2.4,0,0,1-3.169.21l-.017-.013a17.933,17.933,0,0,1-1.646-1.455h0a18.065,18.065,0,0,1,2.086-27.324C147.006,75.12,142.191,86.36,155.858,95.989Z" transform="translate(-142 -67.71)" fill="url(#linear-gradient)"/>
      <path id="Path_220" data-name="Path 220" d="M284.1,73.42h0a18.067,18.067,0,0,1-2.145,27.368c2.327-3.856,7.371-15.208-6.388-24.927l3.7-3.7a2.4,2.4,0,0,1,3.171-.21l.017.013A17.936,17.936,0,0,1,284.1,73.42Z" transform="translate(-253.25 -67.96)" fill="url(#linear-gradient-2)"/>
      <path id="Path_221" data-name="Path 221" d="M207.984,97.837l-4.607,4.607a5.443,5.443,0,0,1-8.955-1.919c.715,2.149,2.867,5.512,9.309,7.622l-.047.007c5.767,1.889,8.1,4.783,9.034,6.91l0,0q.055.094.106.19a4.839,4.839,0,0,1-1.313,6.023c-4.415,3.518-10.944,2.538-12.881,2.145a.98.98,0,0,0-.943.326h0a.98.98,0,0,0,.453,1.564,18.1,18.1,0,0,0,16.231-2.552C216.7,118.908,221.744,107.556,207.984,97.837Z" transform="translate(-185.661 -89.935)" fill="url(#linear-gradient-3)"/>
      <path id="Path_222" data-name="Path 222" d="M178.373,78.925l4.607-4.607a5.443,5.443,0,0,1,8.955,1.919c-.715-2.149-2.867-5.512-9.309-7.622l.047-.007c-5.769-1.889-8.1-4.784-9.035-6.912a5.3,5.3,0,0,1-.682-3.215,3.5,3.5,0,0,1,.977-2.177c4.37-4.485,11.717-3.39,13.792-2.969a.98.98,0,0,0,.943-.326h0a.98.98,0,0,0-.453-1.564A18.1,18.1,0,0,0,171.985,54C169.658,57.853,164.614,69.205,178.373,78.925Z" transform="translate(-164.601 -50.556)" fill="url(#linear-gradient-4)"/>
    </g>
  </g>
</svg>
